{"title":"Blade Runner 2049 2017 1080p BluRay 6CH AAC x264 - EiE","magnet":"magnet:?xt=urn:btih:4f9d9aa12121b1fd30fde400c792c60c3531a073&dn=Blade+Runner+2049+2017+1080p+BluRay+6CH+AAC+x264+-+EiE&tr=udp%3A%2F%2Ftracker.leechers-paradise.org%3A6969&tr=udp%3A%2F%2Fzer0day.ch%3A1337&tr=udp%3A%2F%2Fopen.demonii.com%3A1337&tr=udp%3A%2F%2Ftracker.coppersurfer.tk%3A6969&tr=udp%3A%2F%2Fexodus.desync.com%3A6969","uploader":"samcode4u","categoryP":"video","categoryS":"hd___movies","size":"3007501210","seeders":"0","leechers":"0","description":"Blade Runner 2049 2017 1080p BluRay 6CH AAC x264 - EiE\r\n <a href=\"\nhttps://www.imdb.com/title/tt1856101/\" rel=\"nofollow\" target=\"_NEW\">\nhttps://www.imdb.com/title/tt1856101/</a>\r\n\r\n\r\nScreenshots:\r\n <a href=\"\nhttps://lensdump.com/i/zaKKo\" rel=\"nofollow\" target=\"_NEW\">\nhttps://lensdump.com/i/zaKKo</a>\r\n <a href=\"\nhttps://lensdump.com/i/zapf9\" rel=\"nofollow\" target=\"_NEW\">\nhttps://lensdump.com/i/zapf9</a>\r\n <a href=\"\nhttps://lensdump.com/i/zaO02\" rel=\"nofollow\" target=\"_NEW\">\nhttps://lensdump.com/i/zaO02</a>\r\n <a href=\"\nhttps://lensdump.com/i/zaHqv\" rel=\"nofollow\" target=\"_NEW\">\nhttps://lensdump.com/i/zaHqv</a>\r\n\r\n\r\nVideo\r\nID                                       : 1\r\nFormat                                   : AVC\r\nFormat/Info                              : Advanced Video Codec\r\nFormat settings, CABAC                   : Yes\r\nFormat settings, ReFrames                : 4 frames\r\nCodec ID                                 : avc1\r\nCodec ID/Info                            : Advanced Video Coding\r\nDuration                                 : 2h 43mn\r\nBit rate                                 : 2 195 Kbps\r\nMaximum bit rate                         : 14.8 Mbps\r\nWidth                                    : 1 920 pixels\r\nHeight                                   : 800 pixels\r\nDisplay aspect ratio                     : 2.40:1\r\nFrame rate mode                          : Constant\r\nFrame rate                               : 23.976 fps\r\nColor space                              : YUV\r\nChroma subsampling                       : 4:2:0\r\nBit depth                                : 8 bits\r\nScan type                                : Progressive\r\nBits/(Pixel*Frame)                       : 0.060\r\nStream size                              : 2.51 GiB (89%)\r\n\r\nAudio\r\nID                                       : 2\r\nFormat                                   : AAC\r\nFormat/Info                              : Advanced Audio Codec\r\nFormat profile                           : LC\r\nCodec ID                                 : 40\r\nDuration                                 : 2h 43mn\r\nBit rate mode                            : Variable\r\nBit rate                                 : 254 Kbps\r\nMaximum bit rate                         : 322 Kbps\r\nChannel(s)                               : 6 channels\r\nChannel positions                        : Front: L C R, Side: L R, LFE\r\nSampling rate                            : 48.0 KHz\r\nCompression mode                         : Lossy\r\nStream size                              : 297 MiB (10%)\r\nLanguage                                 : English","last_updated":"2018-01-04T12:01:00.537Z","parsed":{"xt":"urn:btih:4f9d9aa12121b1fd30fde400c792c60c3531a073","dn":"Blade Runner 2049 2017 1080p BluRay 6CH AAC x264 - EiE","tr":["udp://exodus.desync.com:6969","udp://open.demonii.com:1337","udp://tracker.coppersurfer.tk:6969","udp://tracker.leechers-paradise.org:6969","udp://zer0day.ch:1337"],"infoHash":"4f9d9aa12121b1fd30fde400c792c60c3531a073","infoHashBuffer":{"type":"Buffer","data":[79,157,154,161,33,33,177,253,48,253,228,0,199,146,198,12,53,49,160,115]},"name":"Blade Runner 2049 2017 1080p BluRay 6CH AAC x264 - EiE","announce":["udp://exodus.desync.com:6969","udp://open.demonii.com:1337","udp://tracker.coppersurfer.tk:6969","udp://tracker.leechers-paradise.org:6969","udp://zer0day.ch:1337"],"urlList":[]}}